<?xml version="1.0" encoding="UTF-8"?>
<!DOCTYPE svg PUBLIC "-//W3C//DTD SVG 1.1//EN" "http://www.w3.org/Graphics/SVG/1.1/DTD/svg11.dtd">
<svg xmlns="http://www.w3.org/2000/svg" version="1.1" width="2250px" height="2250px" style="shape-rendering:geometricPrecision; text-rendering:geometricPrecision; image-rendering:optimizeQuality; fill-rule:evenodd; clip-rule:evenodd" xmlns:xlink="http://www.w3.org/1999/xlink">
<g><path style="opacity:0.986" fill="#003088" d="M 1957.5,524.5 C 1955.79,527.778 1953.12,530.944 1949.5,534C 1804.14,657.763 1635.48,723.596 1443.5,731.5C 1446.11,792.447 1429.95,847.447 1395,896.5C 1436.09,868.242 1464.92,830.576 1481.5,783.5C 1636.38,774.176 1773.72,721.009 1893.5,624C 1894.17,623.333 1894.83,623.333 1895.5,624C 1811.21,734.359 1702.21,809.359 1568.5,849C 1540.56,883.603 1506.22,909.937 1465.5,928C 1601.86,914.97 1717.02,957.803 1811,1056.5C 1890.39,1147.69 1923.39,1253.69 1910,1374.5C 1891.72,1250.34 1829.55,1155.51 1723.5,1090C 1676.74,1062.75 1626.41,1046.08 1572.5,1040C 1548.15,1037.79 1523.82,1035.45 1499.5,1033C 1462.49,1031.51 1425.49,1029.84 1388.5,1028C 1300.64,1016.74 1226.64,979.074 1166.5,915C 1146.02,916.004 1126.69,911.838 1108.5,902.5C 1107.61,901.675 1107.28,900.675 1107.5,899.5C 1118.85,898.663 1129.51,895.496 1139.5,890C 1148.42,883.752 1156.75,876.752 1164.5,869C 1175.12,862.637 1186.62,859.471 1199,859.5C 1212.8,861.015 1226.64,861.515 1240.5,861C 1251.31,859.841 1261.48,856.674 1271,851.5C 1272.64,867.384 1266.47,879.217 1252.5,887C 1262.89,892.861 1273.55,898.194 1284.5,903C 1301.4,906.821 1316.73,903.488 1330.5,893C 1340.32,884.84 1347.82,875.006 1353,863.5C 1362.3,835.413 1362.97,807.08 1355,778.5C 1343.96,733.424 1324.62,692.424 1297,655.5C 1295.25,645.196 1293.75,634.862 1292.5,624.5C 1514.56,672.576 1726.56,644.743 1928.5,541C 1938.23,535.473 1947.9,529.973 1957.5,524.5 Z"/></g>
<g><path style="opacity:0.968" fill="#003088" d="M 621.5,957.5 C 643.458,956.324 664.125,960.824 683.5,971C 686.5,973.167 689.5,975.333 692.5,977.5C 687.497,986.176 681.997,994.51 676,1002.5C 656.104,988.722 634.271,984.555 610.5,990C 606.807,991.026 604.474,993.36 603.5,997C 604.5,999.333 606.167,1001 608.5,1002C 627.558,1004.3 646.558,1006.97 665.5,1010C 691.297,1017.76 700.131,1034.59 692,1060.5C 683.337,1074.26 670.837,1082.09 654.5,1084C 631.281,1088.06 608.615,1086.06 586.5,1078C 578.997,1074.42 571.997,1070.09 565.5,1065C 570.636,1056.37 575.969,1047.87 581.5,1039.5C 603.594,1055.55 627.928,1060.39 654.5,1054C 660.363,1052.17 662.863,1048.34 662,1042.5C 661.097,1041.3 659.931,1040.47 658.5,1040C 642.525,1037.84 626.525,1035.84 610.5,1034C 596.828,1032.91 585.328,1027.41 576,1017.5C 571.762,1008.28 570.429,998.615 572,988.5C 575.711,975.788 583.878,967.288 596.5,963C 604.781,960.294 613.114,958.46 621.5,957.5 Z"/></g>
<g><path style="opacity:0.981" fill="#003088" d="M 294.5,960.5 C 322.835,960.333 351.169,960.5 379.5,961C 404.24,964.727 414.74,978.894 411,1003.5C 409.657,1007.51 407.491,1011.01 404.5,1014C 419.484,1025.1 423.984,1039.6 418,1057.5C 413.435,1069.06 405.268,1076.9 393.5,1081C 360.549,1082.47 327.549,1082.97 294.5,1082.5C 294.5,1041.83 294.5,1001.17 294.5,960.5 Z M 327.5,990.5 C 343.17,990.333 358.837,990.5 374.5,991C 380.729,995.171 381.062,999.837 375.5,1005C 359.503,1005.5 343.503,1005.67 327.5,1005.5C 327.5,1000.5 327.5,995.5 327.5,990.5 Z M 327.5,1034.5 C 344.837,1034.33 362.17,1034.5 379.5,1035C 386.676,1037.52 388.843,1042.36 386,1049.5C 384.2,1051.32 382.034,1052.48 379.5,1053C 362.17,1053.5 344.837,1053.67 327.5,1053.5C 327.5,1047.17 327.5,1040.83 327.5,1034.5 Z"/></g>
<g><path style="opacity:0.979" fill="#003088" d="M 436.5,960.5 C 474.167,960.5 511.833,960.5 549.5,960.5C 549.5,970.5 549.5,980.5 549.5,990.5C 522.833,990.5 496.167,990.5 469.5,990.5C 469.5,995.833 469.5,1001.17 469.5,1006.5C 493.5,1006.5 517.5,1006.5 541.5,1006.5C 541.5,1016.5 541.5,1026.5 541.5,1036.5C 517.5,1036.5 493.5,1036.5 469.5,1036.5C 469.5,1041.83 469.5,1047.17 469.5,1052.5C 496.833,1052.5 524.167,1052.5 551.5,1052.5C 551.5,1062.5 551.5,1072.5 551.5,1082.5C 513.167,1082.5 474.833,1082.5 436.5,1082.5C 436.5,1041.83 436.5,1001.17 436.5,960.5 Z"/></g>
<g><path style="opacity:0.971" fill="#003088" d="M 712.5,960.5 C 723.833,960.5 735.167,960.5 746.5,960.5C 746.5,975.167 746.5,989.833 746.5,1004.5C 765.833,1004.5 785.167,1004.5 804.5,1004.5C 804.5,989.833 804.5,975.167 804.5,960.5C 815.5,960.5 826.5,960.5 837.5,960.5C 837.5,1001.17 837.5,1041.83 837.5,1082.5C 826.5,1082.5 815.5,1082.5 804.5,1082.5C 804.5,1066.5 804.5,1050.5 804.5,1034.5C 785.167,1034.5 765.833,1034.5 746.5,1034.5C 746.5,1050.5 746.5,1066.5 746.5,1082.5C 735.167,1082.5 723.833,1082.5 712.5,1082.5C 712.5,1041.83 712.5,1001.17 712.5,960.5 Z"/></g>
<g><path style="opacity:0.977" fill="#29b679" d="M 1579.5,1088.5 C 1679.69,1095.67 1759.85,1139.34 1820,1219.5C 1877.42,1303.36 1893.42,1394.7 1868,1493.5C 1835.96,1596.88 1769.46,1668.04 1668.5,1707C 1642.51,1716.17 1615.85,1721.83 1588.5,1724C 1693.47,1685.03 1763.97,1612.53 1800,1506.5C 1830.31,1399.36 1813.64,1300.36 1750,1209.5C 1705.81,1151.5 1648.98,1111.16 1579.5,1088.5 Z"/></g>
<g><path style="opacity:0.967" fill="#003088" d="M 622.5,1119.5 C 639.412,1118.49 656.078,1119.99 672.5,1124C 682.777,1127.13 691.777,1132.3 699.5,1139.5C 694.559,1147.77 689.226,1155.77 683.5,1163.5C 662.139,1149.16 639.139,1145.66 614.5,1153C 609.732,1158.8 611.065,1162.47 618.5,1164C 636.232,1165.9 653.898,1168.23 671.5,1171C 695.8,1176.76 705.633,1191.93 701,1216.5C 697.347,1227.49 690.18,1235.32 679.5,1240C 652.305,1249.63 624.971,1249.96 597.5,1241C 589.096,1237.38 581.262,1232.88 574,1227.5C 573.48,1225.71 573.813,1224.04 575,1222.5C 579.667,1215.17 584.333,1207.83 589,1200.5C 611.157,1217.16 635.657,1222 662.5,1215C 669.587,1212.62 671.253,1208.28 667.5,1202C 646.817,1199.16 626.15,1196.16 605.5,1193C 582.631,1186.11 574.131,1170.94 580,1147.5C 584.54,1135.96 592.706,1128.13 604.5,1124C 610.553,1122.15 616.553,1120.65 622.5,1119.5 Z"/></g>
<g><path style="opacity:0.968" fill="#003088" d="M 1501.5,1119.5 C 1524.15,1117.28 1545.81,1120.78 1566.5,1130C 1570.75,1132.71 1574.92,1135.54 1579,1138.5C 1574.49,1147.15 1569.15,1155.49 1563,1163.5C 1543.33,1150.47 1521.83,1146.3 1498.5,1151C 1494.4,1151.94 1491.73,1154.44 1490.5,1158.5C 1491.91,1162.05 1494.58,1163.88 1498.5,1164C 1517.3,1165.79 1535.97,1168.46 1554.5,1172C 1578.03,1179.56 1586.53,1195.39 1580,1219.5C 1573.86,1231.3 1564.36,1239.13 1551.5,1243C 1522.27,1250.83 1493.94,1248.5 1466.5,1236C 1461.48,1233.16 1456.81,1229.82 1452.5,1226C 1457.64,1217.37 1462.97,1208.87 1468.5,1200.5C 1492.38,1218.41 1518.38,1222.58 1546.5,1213C 1549.98,1209.6 1550.31,1205.94 1547.5,1202C 1526.81,1199.22 1506.14,1196.22 1485.5,1193C 1463.57,1186.67 1454.74,1172.17 1459,1149.5C 1464.45,1134.72 1474.95,1125.56 1490.5,1122C 1494.35,1121.37 1498.01,1120.53 1501.5,1119.5 Z"/></g>
<g><path style="opacity:0.962" fill="#003088" d="M 290.5,1122.5 C 333.167,1122.5 375.833,1122.5 418.5,1122.5C 418.5,1132.5 418.5,1142.5 418.5,1152.5C 402.833,1152.5 387.167,1152.5 371.5,1152.5C 371.5,1183.17 371.5,1213.83 371.5,1244.5C 360.167,1244.5 348.833,1244.5 337.5,1244.5C 337.5,1213.83 337.5,1183.17 337.5,1152.5C 321.833,1152.5 306.167,1152.5 290.5,1152.5C 290.5,1142.5 290.5,1132.5 290.5,1122.5 Z"/></g>
<g><path style="opacity:0.973" fill="#003088" d="M 462.5,1122.5 C 478.847,1122.17 495.18,1122.5 511.5,1123.5C 528.5,1163.5 545.5,1203.5 562.5,1243.5C 550.518,1244.5 538.518,1244.83 526.5,1244.5C 524.661,1238.49 522.328,1232.65 519.5,1227C 497.5,1226.33 475.5,1226.33 453.5,1227C 450.833,1232.67 448.167,1238.33 445.5,1244C 433.838,1244.5 422.171,1244.67 410.5,1244.5C 427.279,1203.61 444.612,1162.94 462.5,1122.5 Z M 484.5,1151.5 C 487.48,1151.24 489.313,1152.57 490,1155.5C 495.505,1169.35 501.005,1183.18 506.5,1197C 492.833,1197.67 479.167,1197.67 465.5,1197C 471.978,1181.88 478.311,1166.71 484.5,1151.5 Z"/></g>
<g><path style="opacity:0.98" fill="#003088" d="M 720.5,1122.5 C 731.5,1122.5 742.5,1122.5 753.5,1122.5C 753.5,1137.17 753.5,1151.83 753.5,1166.5C 772.833,1166.5 792.167,1166.5 811.5,1166.5C 811.5,1151.83 811.5,1137.17 811.5,1122.5C 822.5,1122.5 833.5,1122.5 844.5,1122.5C 844.5,1163.17 844.5,1203.83 844.5,1244.5C 833.5,1244.5 822.5,1244.5 811.5,1244.5C 811.5,1228.5 811.5,1212.5 811.5,1196.5C 792.167,1196.5 772.833,1196.5 753.5,1196.5C 753.5,1212.5 753.5,1228.5 753.5,1244.5C 742.5,1244.5 731.5,1244.5 720.5,1244.5C 720.5,1203.83 720.5,1163.17 720.5,1122.5 Z"/></g>
<g><path style="opacity:0.973" fill="#003088" d="M 912.5,1122.5 C 928.847,1122.17 945.18,1122.5 961.5,1123.5C 978.5,1163.5 995.5,1203.5 1012.5,1243.5C 1000.52,1244.5 988.518,1244.83 976.5,1244.5C 974.661,1238.49 972.328,1232.65 969.5,1227C 947.5,1226.33 925.5,1226.33 903.5,1227C 900.464,1232.57 898.131,1238.4 896.5,1244.5C 884.5,1244.5 872.5,1244.5 860.5,1244.5C 877.276,1203.61 894.609,1162.95 912.5,1122.5 Z M 934.5,1151.5 C 937.48,1151.24 939.313,1152.57 940,1155.5C 945.505,1169.35 951.005,1183.18 956.5,1197C 942.833,1197.67 929.167,1197.67 915.5,1197C 921.978,1181.88 928.311,1166.71 934.5,1151.5 Z"/></g>
<g><path style="opacity:0.977" fill="#003088" d="M 1027.5,1122.5 C 1057.17,1122.33 1086.84,1122.5 1116.5,1123C 1138.87,1128.57 1148.04,1142.74 1144,1165.5C 1142.7,1169.27 1140.53,1172.44 1137.5,1175C 1152.67,1186.44 1157.17,1201.27 1151,1219.5C 1145.98,1231.6 1137.15,1239.43 1124.5,1243C 1092.21,1244.46 1059.87,1244.96 1027.5,1244.5C 1027.5,1203.83 1027.5,1163.17 1027.5,1122.5 Z M 1060.5,1152.5 C 1076.84,1152.33 1093.17,1152.5 1109.5,1153C 1113.93,1158.44 1113.26,1163.11 1107.5,1167C 1091.84,1167.5 1076.17,1167.67 1060.5,1167.5C 1060.5,1162.5 1060.5,1157.5 1060.5,1152.5 Z M 1060.5,1196.5 C 1078.5,1196.33 1096.5,1196.5 1114.5,1197C 1120.47,1200.39 1121.97,1205.23 1119,1211.5C 1117.58,1212.46 1116.08,1213.29 1114.5,1214C 1096.5,1214.5 1078.5,1214.67 1060.5,1214.5C 1060.5,1208.5 1060.5,1202.5 1060.5,1196.5 Z"/></g>
<g><path style="opacity:0.977" fill="#003088" d="M 1169.5,1122.5 C 1199.5,1122.33 1229.5,1122.5 1259.5,1123C 1283.94,1130.38 1292.11,1146.22 1284,1170.5C 1282.5,1172 1281,1173.5 1279.5,1175C 1294.67,1186.44 1299.17,1201.28 1293,1219.5C 1288.24,1231.93 1279.41,1239.76 1266.5,1243C 1234.21,1244.46 1201.87,1244.96 1169.5,1244.5C 1169.5,1203.83 1169.5,1163.17 1169.5,1122.5 Z M 1202.5,1152.5 C 1218.84,1152.33 1235.17,1152.5 1251.5,1153C 1255.93,1158.44 1255.26,1163.11 1249.5,1167C 1233.84,1167.5 1218.17,1167.67 1202.5,1167.5C 1202.5,1162.5 1202.5,1157.5 1202.5,1152.5 Z M 1202.5,1196.5 C 1220.5,1196.33 1238.5,1196.5 1256.5,1197C 1262.61,1200.25 1264.11,1205.08 1261,1211.5C 1259.58,1212.46 1258.08,1213.29 1256.5,1214C 1238.5,1214.5 1220.5,1214.67 1202.5,1214.5C 1202.5,1208.5 1202.5,1202.5 1202.5,1196.5 Z"/></g>
<g><path style="opacity:0.977" fill="#003088" d="M 1310.5,1122.5 C 1321.5,1122.5 1332.5,1122.5 1343.5,1122.5C 1343.33,1144.17 1343.5,1165.84 1344,1187.5C 1346.24,1211.72 1359.41,1221.56 1383.5,1217C 1393.84,1213.99 1400.01,1207.15 1402,1196.5C 1403.43,1171.87 1403.93,1147.2 1403.5,1122.5C 1414.5,1122.5 1425.5,1122.5 1436.5,1122.5C 1436.67,1146.5 1436.5,1170.5 1436,1194.5C 1430.4,1229.92 1409.57,1247.59 1373.5,1247.5C 1336.51,1247.34 1315.68,1229.01 1311,1192.5C 1310.5,1169.17 1310.33,1145.84 1310.5,1122.5 Z"/></g>
<g><path style="opacity:0.97" fill="#003088" d="M 353.5,1280.5 C 385.304,1278.01 409.137,1290.34 425,1317.5C 437.126,1348.76 430.293,1374.93 404.5,1396C 383.592,1409.09 361.259,1412.09 337.5,1405C 304.037,1391.25 289.87,1366.41 295,1330.5C 300.653,1309.51 313.487,1294.68 333.5,1286C 340.129,1283.51 346.796,1281.68 353.5,1280.5 Z M 353.5,1309.5 C 383.119,1307.29 397.619,1320.96 397,1350.5C 392.199,1372.16 378.699,1381.99 356.5,1380C 332.975,1373.81 323.475,1358.64 328,1334.5C 331.755,1321.24 340.255,1312.91 353.5,1309.5 Z"/></g>
<g><path style="opacity:0.969" fill="#003088" d="M 1518.5,1280.5 C 1540.2,1279.06 1560.86,1282.89 1580.5,1292C 1584.68,1294.59 1588.68,1297.42 1592.5,1300.5C 1587.56,1308.93 1582.06,1316.93 1576,1324.5C 1554.73,1310.84 1531.89,1307.34 1507.5,1314C 1502.03,1318.73 1502.69,1322.4 1509.5,1325C 1528.58,1327.16 1547.58,1329.82 1566.5,1333C 1590.25,1340.32 1599.08,1356.16 1593,1380.5C 1588.04,1391.46 1579.88,1398.96 1568.5,1403C 1548.47,1408.65 1528.14,1409.98 1507.5,1407C 1491.55,1404.42 1477.55,1397.92 1465.5,1387.5C 1469.67,1380.5 1473.83,1373.5 1478,1366.5C 1478.9,1364.67 1480.23,1363.34 1482,1362.5C 1505.41,1379.49 1530.91,1383.65 1558.5,1375C 1563.2,1371.22 1563.53,1367.22 1559.5,1363C 1543.55,1360.71 1527.55,1358.71 1511.5,1357C 1501.05,1355.85 1491.38,1352.52 1482.5,1347C 1471.96,1337.02 1468.46,1324.85 1472,1310.5C 1476.08,1298.76 1483.91,1290.59 1495.5,1286C 1503.13,1283.44 1510.8,1281.61 1518.5,1280.5 Z"/></g>
<g><path style="opacity:0.975" fill="#003088" d="M 449.5,1283.5 C 460.5,1283.5 471.5,1283.5 482.5,1283.5C 482.5,1314.17 482.5,1344.83 482.5,1375.5C 509.167,1375.5 535.833,1375.5 562.5,1375.5C 562.5,1385.5 562.5,1395.5 562.5,1405.5C 524.833,1405.5 487.167,1405.5 449.5,1405.5C 449.5,1364.83 449.5,1324.17 449.5,1283.5 Z"/></g>
<g><path style="opacity:0.981" fill="#003088" d="M 577.5,1283.5 C 588.5,1283.5 599.5,1283.5 610.5,1283.5C 610.5,1324.17 610.5,1364.83 610.5,1405.5C 599.5,1405.5 588.5,1405.5 577.5,1405.5C 577.5,1364.83 577.5,1324.17 577.5,1283.5 Z"/></g>
<g><path style="opacity:0.978" fill="#003088" d="M 630.5,1283.5 C 644.745,1283.18 658.912,1283.51 673,1284.5C 685.333,1310.83 697.667,1337.17 710,1363.5C 724.011,1337.48 737.511,1311.15 750.5,1284.5C 763.817,1283.5 777.15,1283.17 790.5,1283.5C 790.5,1324.17 790.5,1364.83 790.5,1405.5C 779.5,1405.5 768.5,1405.5 757.5,1405.5C 757.667,1381.16 757.5,1356.83 757,1332.5C 746,1356.5 735,1380.5 724,1404.5C 714.667,1405.83 705.333,1405.83 696,1404.5C 685,1380.5 674,1356.5 663,1332.5C 662.5,1356.83 662.333,1381.16 662.5,1405.5C 651.833,1405.5 641.167,1405.5 630.5,1405.5C 630.5,1364.83 630.5,1324.17 630.5,1283.5 Z"/></g>
<g><path style="opacity:0.982" fill="#003088" d="M 810.5,1283.5 C 839.209,1283.04 867.876,1283.54 896.5,1285C 916.889,1290.06 929.056,1302.89 933,1323.5C 936.064,1353.74 922.898,1372.24 893.5,1379C 876.837,1379.5 860.17,1379.67 843.5,1379.5C 843.5,1388.17 843.5,1396.83 843.5,1405.5C 832.5,1405.5 821.5,1405.5 810.5,1405.5C 810.5,1364.83 810.5,1324.17 810.5,1283.5 Z M 843.5,1313.5 C 858.55,1313.08 873.55,1313.58 888.5,1315C 900.731,1321.75 903.398,1331.25 896.5,1343.5C 893.617,1346.11 890.283,1347.94 886.5,1349C 872.171,1349.5 857.837,1349.67 843.5,1349.5C 843.5,1337.5 843.5,1325.5 843.5,1313.5 Z"/></g>
<g><path style="opacity:0.981" fill="#003088" d="M 949.5,1283.5 C 960.5,1283.5 971.5,1283.5 982.5,1283.5C 982.5,1324.17 982.5,1364.83 982.5,1405.5C 971.5,1405.5 960.5,1405.5 949.5,1405.5C 949.5,1364.83 949.5,1324.17 949.5,1283.5 Z"/></g>
<g><path style="opacity:0.974" fill="#003088" d="M 1050.5,1283.5 C 1066.74,1283.18 1082.91,1283.51 1099,1284.5C 1116.17,1324.68 1133.34,1364.85 1150.5,1405C 1138.49,1405.83 1126.49,1405.67 1114.5,1404.5C 1112.17,1399.17 1109.83,1393.83 1107.5,1388.5C 1085.51,1387.33 1063.51,1387.17 1041.5,1388C 1038.67,1393.65 1036.34,1399.49 1034.5,1405.5C 1022.5,1405.5 1010.5,1405.5 998.5,1405.5C 1015.64,1364.76 1032.97,1324.1 1050.5,1283.5 Z M 1072.5,1313.5 C 1074.14,1313.29 1075.64,1313.62 1077,1314.5C 1082.64,1329.1 1088.48,1343.6 1094.5,1358C 1080.83,1358.67 1067.17,1358.67 1053.5,1358C 1059.74,1343.11 1066.07,1328.28 1072.5,1313.5 Z"/></g>
<g><path style="opacity:0.976" fill="#003088" d="M 1165.5,1283.5 C 1189.84,1283.33 1214.17,1283.5 1238.5,1284C 1264.91,1287.76 1283.08,1301.93 1293,1326.5C 1300.14,1369.02 1282.64,1395.19 1240.5,1405C 1215.5,1405.5 1190.5,1405.67 1165.5,1405.5C 1165.5,1364.83 1165.5,1324.17 1165.5,1283.5 Z M 1198.5,1313.5 C 1211.17,1313.33 1223.84,1313.5 1236.5,1314C 1259.02,1321.2 1266.52,1336.03 1259,1358.5C 1252.84,1368.17 1244.01,1373.67 1232.5,1375C 1221.17,1375.5 1209.84,1375.67 1198.5,1375.5C 1198.5,1354.83 1198.5,1334.17 1198.5,1313.5 Z"/></g>
<g><path style="opacity:0.974" fill="#003088" d="M 1355.5,1283.5 C 1371.74,1283.18 1387.91,1283.51 1404,1284.5C 1421.14,1324.75 1437.97,1365.08 1454.5,1405.5C 1442.83,1405.67 1431.16,1405.5 1419.5,1405C 1416.67,1399.35 1414.34,1393.51 1412.5,1387.5C 1390.17,1387.5 1367.83,1387.5 1345.5,1387.5C 1343.66,1393.51 1341.33,1399.35 1338.5,1405C 1326.5,1405.67 1314.5,1405.67 1302.5,1405C 1320.31,1364.55 1337.98,1324.05 1355.5,1283.5 Z M 1376.5,1313.5 C 1378.29,1313.21 1379.95,1313.55 1381.5,1314.5C 1387.36,1328.75 1393.03,1343.09 1398.5,1357.5C 1385.17,1358.83 1371.83,1358.83 1358.5,1357.5C 1365.07,1343.04 1371.07,1328.37 1376.5,1313.5 Z"/></g>
<g><path style="opacity:0.981" fill="#003088" d="M 1612.5,1283.5 C 1623.5,1283.5 1634.5,1283.5 1645.5,1283.5C 1645.5,1324.17 1645.5,1364.83 1645.5,1405.5C 1634.5,1405.5 1623.5,1405.5 1612.5,1405.5C 1612.5,1364.83 1612.5,1324.17 1612.5,1283.5 Z"/></g>
<g><path style="opacity:0.982" fill="#fcb93d" d="M 1763.5,1339.5 C 1788.05,1430.21 1773.88,1514.54 1721,1592.5C 1660.46,1673.89 1579.12,1715.56 1477,1717.5C 1386.62,1716.13 1311.62,1681.8 1252,1614.5C 1251.33,1613.83 1251.33,1613.17 1252,1612.5C 1333.34,1655.06 1418.5,1664.9 1507.5,1642C 1620.24,1608.6 1698.74,1537.43 1743,1428.5C 1753.78,1399.73 1760.61,1370.06 1763.5,1339.5 Z"/></g>
<g><path style="opacity:0.963" fill="#f22e47" d="M 1128.5,1418.5 C 1138.52,1418.17 1148.52,1418.5 1158.5,1419.5C 1202.1,1504.58 1270.44,1558.74 1363.5,1582C 1394.85,1588.81 1426.52,1591.14 1458.5,1589C 1377.11,1616.24 1300.44,1606.58 1228.5,1560C 1178.32,1524.83 1144.99,1477.66 1128.5,1418.5 Z"/></g>
</svg>
