<svg width="32" height="32" viewBox="0 0 32 32" fill="none" xmlns="http://www.w3.org/2000/svg">
<g id="agreement 1">
<path id="Vector" d="M22.7449 27.4496C22.5695 27.4498 22.3958 27.4155 22.2336 27.3486C22.0715 27.2817 21.9241 27.1835 21.7999 27.0596L21.2749 26.5596C21.2129 26.4965 21.1284 26.4606 21.0399 26.4596H20.2949C19.9413 26.4583 19.6025 26.3172 19.3524 26.0671C19.1023 25.817 18.9612 25.4782 18.9599 25.1246V24.3546C18.9589 24.2661 18.923 24.1816 18.8599 24.1196L18.3599 23.5946C18.1102 23.3435 17.97 23.0037 17.97 22.6496C17.97 22.2954 18.1102 21.9557 18.3599 21.7046L18.8599 21.2046C18.8916 21.1742 18.9168 21.1377 18.934 21.0973C18.9512 21.0569 18.96 21.0135 18.9599 20.9696V20.1996C18.9612 19.8459 19.1023 19.5071 19.3524 19.257C19.6025 19.007 19.9413 18.8659 20.2949 18.8646H21.0399C21.1284 18.8636 21.2129 18.8276 21.2749 18.7646L21.7999 18.2396C22.051 17.9898 22.3908 17.8496 22.7449 17.8496C23.0991 17.8496 23.4388 17.9898 23.6899 18.2396L24.1899 18.7646C24.2203 18.7962 24.2568 18.8214 24.2972 18.8386C24.3376 18.8558 24.381 18.8646 24.4249 18.8646H25.1699C25.5236 18.8659 25.8624 19.007 26.1125 19.257C26.3625 19.5071 26.5036 19.8459 26.5049 20.1996V20.9446C26.5049 20.9885 26.5137 21.0319 26.5309 21.0723C26.5481 21.1127 26.5733 21.1492 26.6049 21.1796L27.1299 21.6796C27.3797 21.9307 27.5199 22.2704 27.5199 22.6246C27.5199 22.9787 27.3797 23.3185 27.1299 23.5696L26.6049 24.0946C26.5419 24.1566 26.5059 24.2411 26.5049 24.3296V25.0996C26.5036 25.4532 26.3625 25.792 26.1125 26.0421C25.8624 26.2922 25.5236 26.4333 25.1699 26.4346H24.4499C24.406 26.4345 24.3626 26.4433 24.3222 26.4605C24.2818 26.4777 24.2453 26.5029 24.2149 26.5346L23.7149 27.0346C23.5899 27.166 23.4394 27.2706 23.2727 27.342C23.1059 27.4133 22.9263 27.4499 22.7449 27.4496ZM20.2949 19.8646C20.2061 19.8646 20.1209 19.8999 20.0581 19.9627C19.9952 20.0255 19.9599 20.1107 19.9599 20.1996V20.9446C19.9594 21.2986 19.8192 21.6382 19.5699 21.8896L19.0399 22.3896C19.0054 22.4214 18.9778 22.4601 18.959 22.5031C18.9401 22.5461 18.9304 22.5926 18.9304 22.6396C18.9304 22.6865 18.9401 22.733 18.959 22.776C18.9778 22.8191 19.0054 22.8577 19.0399 22.8896L19.5699 23.3896C19.6937 23.5128 19.7918 23.6593 19.8588 23.8206C19.9257 23.982 19.9601 24.1549 19.9599 24.3296V25.0996C19.9599 25.1884 19.9952 25.2736 20.0581 25.3365C20.1209 25.3993 20.2061 25.4346 20.2949 25.4346H21.0399C21.2151 25.4342 21.3885 25.469 21.5499 25.5369C21.7114 25.6047 21.8576 25.7042 21.9799 25.8296L22.4999 26.3546C22.5632 26.4151 22.6474 26.4489 22.7349 26.4489C22.8225 26.4489 22.9067 26.4151 22.9699 26.3546L23.4999 25.8296C23.6223 25.7042 23.7685 25.6047 23.9299 25.5369C24.0914 25.469 24.2648 25.4342 24.4399 25.4346H25.1849C25.2738 25.4346 25.359 25.3993 25.4218 25.3365C25.4846 25.2736 25.5199 25.1884 25.5199 25.0996V24.3546C25.5198 24.1799 25.5542 24.007 25.6211 23.8456C25.688 23.6843 25.7862 23.5378 25.9099 23.4146L26.4399 22.9146C26.4745 22.8827 26.502 22.8441 26.5209 22.801C26.5398 22.758 26.5495 22.7116 26.5495 22.6646C26.5495 22.6176 26.5398 22.5711 26.5209 22.5281C26.502 22.4851 26.4745 22.4464 26.4399 22.4146L25.9099 21.9146C25.6606 21.6632 25.5205 21.3236 25.5199 20.9696V20.1996C25.5199 20.1107 25.4846 20.0255 25.4218 19.9627C25.359 19.8999 25.2738 19.8646 25.1849 19.8646H24.4499C24.0977 19.872 23.7566 19.741 23.4999 19.4996L22.9999 18.9496C22.9692 18.9184 22.9326 18.8937 22.8923 18.8768C22.852 18.8599 22.8087 18.8512 22.7649 18.8512C22.7212 18.8512 22.6779 18.8599 22.6376 18.8768C22.5972 18.8937 22.5606 18.9184 22.5299 18.9496L21.9999 19.4996C21.8767 19.6233 21.7302 19.7215 21.5689 19.7884C21.4075 19.8553 21.2346 19.8897 21.0599 19.8896L20.2949 19.8646Z" fill="#246BFD"/>
<path id="Vector_2" d="M20.9351 31.5003C20.8378 31.4992 20.743 31.4698 20.6621 31.4156C20.5813 31.3614 20.5181 31.2849 20.4801 31.1953L19.9801 30.0553L18.8401 30.5003C18.748 30.5333 18.6482 30.5386 18.5531 30.5155C18.458 30.4924 18.3718 30.4419 18.3051 30.3703C18.2384 30.2993 18.1939 30.2104 18.177 30.1145C18.1601 30.0185 18.1716 29.9197 18.2101 29.8303L20.0001 25.7353C20.024 25.6717 20.0606 25.6137 20.1076 25.5648C20.1546 25.5158 20.2111 25.4769 20.2736 25.4505C20.3362 25.4241 20.4034 25.4107 20.4713 25.4111C20.5392 25.4116 20.6062 25.4258 20.6684 25.453C20.7306 25.4802 20.7866 25.5198 20.8331 25.5693C20.8795 25.6188 20.9153 25.6773 20.9384 25.7411C20.9615 25.805 20.9713 25.8728 20.9673 25.9406C20.9633 26.0084 20.9455 26.0746 20.9151 26.1353L19.6101 29.1353L20.1101 28.9503C20.231 28.9054 20.3645 28.9089 20.4829 28.9602C20.6012 29.0114 20.6952 29.1064 20.7451 29.2253L20.9551 29.7253L22.2551 26.7253C22.279 26.6617 22.3156 26.6037 22.3626 26.5548C22.4096 26.5058 22.4661 26.4669 22.5286 26.4405C22.5912 26.4141 22.6584 26.4007 22.7263 26.4011C22.7942 26.4016 22.8612 26.4158 22.9234 26.443C22.9856 26.4702 23.0416 26.5098 23.0881 26.5593C23.1345 26.6088 23.1703 26.6673 23.1934 26.7311C23.2165 26.795 23.2263 26.8628 23.2223 26.9306C23.2183 26.9984 23.2005 27.0646 23.1701 27.1253L21.4051 31.1753C21.3694 31.271 21.3051 31.3534 21.2211 31.4115C21.1371 31.4696 21.0373 31.5006 20.9351 31.5003Z" fill="#246BFD"/>
<path id="Vector_3" d="M24.555 31.5C24.4575 31.5003 24.3619 31.4721 24.2802 31.4188C24.1984 31.3655 24.1341 31.2894 24.095 31.2L22.325 27.15C22.272 27.028 22.2696 26.8899 22.3183 26.7662C22.3671 26.6424 22.463 26.543 22.585 26.49C22.707 26.437 22.8451 26.4345 22.9689 26.4833C23.0927 26.5321 23.192 26.628 23.245 26.75L24.545 29.75L24.755 29.25C24.805 29.1323 24.8981 29.0382 25.0153 28.9871C25.1325 28.9359 25.2648 28.9316 25.385 28.975L25.885 29.16L24.575 26.16C24.5488 26.0996 24.5347 26.0346 24.5335 25.9687C24.5324 25.9029 24.5442 25.8374 24.5683 25.7762C24.5925 25.7149 24.6285 25.6589 24.6742 25.6116C24.72 25.5642 24.7746 25.5263 24.835 25.5C24.8954 25.4737 24.9604 25.4596 25.0263 25.4585C25.0922 25.4573 25.1576 25.4692 25.2189 25.4933C25.2802 25.5175 25.3361 25.5534 25.3835 25.5992C25.4309 25.6449 25.4688 25.6996 25.495 25.76L27.27 29.835C27.3085 29.9245 27.32 30.0233 27.3032 30.1192C27.2863 30.2151 27.2417 30.304 27.175 30.375C27.1087 30.4439 27.0239 30.4923 26.9309 30.5144C26.8378 30.5366 26.7403 30.5316 26.65 30.5L25.5 30.055L25 31.195C24.9621 31.2846 24.8988 31.3612 24.818 31.4154C24.7372 31.4695 24.6423 31.4989 24.545 31.5H24.555ZM21.47 25.11C21.3658 25.1093 21.2644 25.0761 21.18 25.015C21.1025 24.9594 21.0424 24.8828 21.007 24.7942C20.9715 24.7056 20.9622 24.6087 20.98 24.515L21.18 23.355L20.335 22.535C20.269 22.4696 20.2225 22.387 20.2008 22.2967C20.1791 22.2063 20.183 22.1117 20.212 22.0234C20.2411 21.9351 20.2942 21.8567 20.3654 21.7969C20.4366 21.7371 20.5231 21.6984 20.615 21.685L21.775 21.515L22.275 20.46C22.316 20.3755 22.3799 20.3042 22.4595 20.2543C22.5391 20.2044 22.6311 20.1779 22.725 20.1779C22.819 20.1779 22.911 20.2044 22.9906 20.2543C23.0702 20.3042 23.1341 20.3755 23.175 20.46L23.675 21.515L24.835 21.685C24.927 21.6984 25.0135 21.7371 25.0846 21.7969C25.1558 21.8567 25.209 21.9351 25.238 22.0234C25.2671 22.1117 25.271 22.2063 25.2493 22.2967C25.2276 22.387 25.1811 22.4696 25.115 22.535L24.27 23.355L24.47 24.515C24.4879 24.6087 24.4785 24.7056 24.4431 24.7942C24.4077 24.8828 24.3476 24.9594 24.27 25.015C24.1971 25.0643 24.1125 25.0935 24.0247 25.0997C23.9369 25.1058 23.8491 25.0887 23.77 25.05L22.745 24.5L21.705 25.05C21.6328 25.089 21.5521 25.1096 21.47 25.11ZM22.745 23.44C22.8336 23.4396 22.921 23.4601 23 23.5L23.375 23.7L23.3 23.28C23.2869 23.2004 23.2933 23.1188 23.3185 23.0422C23.3438 22.9656 23.3872 22.8962 23.445 22.84L23.75 22.545L23.31 22.5C23.2304 22.4885 23.1548 22.4579 23.0895 22.4109C23.0242 22.3639 22.9712 22.3019 22.935 22.23L22.745 21.845L22.555 22.23C22.5189 22.3019 22.4659 22.3639 22.4006 22.4109C22.3353 22.4579 22.2597 22.4885 22.18 22.5L21.76 22.565L22.065 22.86C22.1229 22.9162 22.1663 22.9856 22.1916 23.0622C22.2168 23.1388 22.2232 23.2204 22.21 23.3L22.135 23.72L22.5 23.5C22.5761 23.4616 22.6599 23.4411 22.745 23.44ZM23.64 7.1H20.085C19.4105 7.09868 18.7639 6.83012 18.2869 6.35313C17.8099 5.87613 17.5414 5.22957 17.54 4.555V1C17.54 0.867392 17.5927 0.740215 17.6865 0.646447C17.7803 0.552678 17.9074 0.5 18.04 0.5C18.1726 0.5 18.2998 0.552678 18.3936 0.646447C18.4874 0.740215 18.54 0.867392 18.54 1V4.555C18.54 4.96476 18.7028 5.35774 18.9926 5.64748C19.2823 5.93722 19.6753 6.1 20.085 6.1H23.64C23.7726 6.1 23.8998 6.15268 23.9936 6.24645C24.0874 6.34021 24.14 6.46739 24.14 6.6C24.14 6.73261 24.0874 6.85979 23.9936 6.95355C23.8998 7.04732 23.7726 7.1 23.64 7.1Z" fill="#246BFD"/>
<path id="Vector_4" d="M17.3201 24.64H7.00008C6.3251 24.64 5.67777 24.3719 5.20049 23.8946C4.72321 23.4173 4.45508 22.77 4.45508 22.095V3.04501C4.45508 2.37003 4.72321 1.7227 5.20049 1.24542C5.67777 0.768141 6.3251 0.500008 7.00008 0.500008H18.0401C18.1059 0.499628 18.1711 0.51224 18.232 0.537123C18.2929 0.562005 18.3484 0.598668 18.3951 0.645008L24.0001 6.25001C24.0925 6.34314 24.1445 6.46884 24.1451 6.60001V17.145C24.1451 17.2776 24.0924 17.4048 23.9986 17.4986C23.9049 17.5923 23.7777 17.645 23.6451 17.645C23.5125 17.645 23.3853 17.5923 23.2915 17.4986C23.1978 17.4048 23.1451 17.2776 23.1451 17.145V6.81001L17.8351 1.50001H7.00008C6.59072 1.50133 6.19851 1.66453 5.90905 1.95398C5.6196 2.24344 5.4564 2.63565 5.45508 3.04501V22.095C5.45508 22.5048 5.61785 22.8977 5.9076 23.1875C6.19734 23.4772 6.59032 23.64 7.00008 23.64H17.3201C17.4527 23.64 17.5799 23.6927 17.6736 23.7865C17.7674 23.8802 17.8201 24.0074 17.8201 24.14C17.8201 24.2726 17.7674 24.3998 17.6736 24.4936C17.5799 24.5873 17.4527 24.64 17.3201 24.64Z" fill="#246BFD"/>
<path id="Vector_5" d="M20.8401 10.1797H7.84009C7.70748 10.1797 7.5803 10.127 7.48653 10.0332C7.39277 9.93947 7.34009 9.8123 7.34009 9.67969C7.34009 9.54708 7.39277 9.4199 7.48653 9.32613C7.5803 9.23237 7.70748 9.17969 7.84009 9.17969H20.8401C20.9727 9.17969 21.0999 9.23237 21.1936 9.32613C21.2874 9.4199 21.3401 9.54708 21.3401 9.67969C21.3401 9.8123 21.2874 9.93947 21.1936 10.0332C21.0999 10.127 20.9727 10.1797 20.8401 10.1797ZM20.8401 13.5547H7.84009C7.70748 13.5547 7.5803 13.502 7.48653 13.4082C7.39277 13.3145 7.34009 13.1873 7.34009 13.0547C7.34009 12.9221 7.39277 12.7949 7.48653 12.7011C7.5803 12.6074 7.70748 12.5547 7.84009 12.5547H20.8401C20.9727 12.5547 21.0999 12.6074 21.1936 12.7011C21.2874 12.7949 21.3401 12.9221 21.3401 13.0547C21.3401 13.1873 21.2874 13.3145 21.1936 13.4082C21.0999 13.502 20.9727 13.5547 20.8401 13.5547ZM20.8401 16.9297H7.84009C7.70748 16.9297 7.5803 16.877 7.48653 16.7832C7.39277 16.6895 7.34009 16.5623 7.34009 16.4297C7.34009 16.2971 7.39277 16.1699 7.48653 16.0761C7.5803 15.9824 7.70748 15.9297 7.84009 15.9297H20.8401C20.9727 15.9297 21.0999 15.9824 21.1936 16.0761C21.2874 16.1699 21.3401 16.2971 21.3401 16.4297C21.3401 16.5623 21.2874 16.6895 21.1936 16.7832C21.0999 16.877 20.9727 16.9297 20.8401 16.9297Z" fill="#246BFD"/>
</g>
</svg>
