<svg width="32" height="32" viewBox="0 0 32 32" fill="none" xmlns="http://www.w3.org/2000/svg">
<g id="architecture 1" clip-path="url(#clip0_1747_2525)">
<path id="Vector" d="M21.313 1.94336V5.81836H2.437C1.79099 5.81994 1.17189 6.07735 0.715183 6.53424C0.258471 6.99114 0.00132463 7.61034 4.38937e-06 8.25636V26.6604C-0.000152038 26.6977 0.00387305 26.7349 0.0120044 26.7714C0.0404974 27.3961 0.308173 27.9859 0.7596 28.4188C1.21103 28.8516 1.81162 29.0942 2.437 29.0964H3.907V25.2234H22.78C23.4262 25.222 24.0455 24.9648 24.5025 24.5078C24.9594 24.0509 25.2167 23.4316 25.218 22.7854V4.38136C25.2167 3.73517 24.9594 3.11582 24.5025 2.65889C24.0455 2.20196 23.4262 1.94468 22.78 1.94336H21.313ZM22.313 2.94336H22.781C23.586 2.94336 24.219 3.57636 24.219 4.38136V20.9434C23.806 20.6234 23.341 20.3484 22.781 20.3484H22.313V2.94336ZM26.656 6.78736C26.5234 6.78736 26.3962 6.84004 26.3025 6.93381C26.2087 7.02757 26.156 7.15475 26.156 7.28736V24.7234C26.156 24.856 26.2087 24.9831 26.3025 25.0769C26.3962 25.1707 26.5234 25.2234 26.656 25.2234H31.5C31.6326 25.2234 31.7598 25.1707 31.8536 25.0769C31.9473 24.9831 32 24.856 32 24.7234V7.28736C32 7.15475 31.9473 7.02757 31.8536 6.93381C31.7598 6.84004 31.6326 6.78736 31.5 6.78736H26.656ZM2.438 6.81836H21.313V21.3484H22.781C23.586 21.3484 24.219 21.9804 24.219 22.7854C24.219 23.5904 23.586 24.2234 22.781 24.2234H2.437C1.899 24.2234 1.404 24.4034 1 24.7014V8.25636C1 7.45136 1.632 6.81836 2.438 6.81836ZM27.156 7.78836H31V24.2234H27.156V23.2854H29.078V22.2854H27.156V21.3484H28.109V20.3484H27.156V19.4104H29.078V18.4104H27.156V17.4734H28.109V16.4734H27.156V15.5354H29.078V14.5354H27.156V13.5984H28.109V12.5984H27.156V11.6624H29.078V10.6624H27.156V9.72536H28.109V8.72536H27.156V7.78836ZM4.375 8.72536C4.2424 8.72536 4.11522 8.77804 4.02145 8.87181C3.92768 8.96557 3.875 9.09275 3.875 9.22536V21.8164C3.875 21.949 3.92768 22.0761 4.02145 22.1699C4.11522 22.2637 4.2424 22.3164 4.375 22.3164H18.906C19.0386 22.3164 19.1658 22.2637 19.2596 22.1699C19.3533 22.0761 19.406 21.949 19.406 21.8164V9.22536C19.406 9.09275 19.3533 8.96557 19.2596 8.87181C19.1658 8.77804 19.0386 8.72536 18.906 8.72536H8.734V9.72536H10.656V12.6154H11.656V9.72536H18.406V15.5044H15.531V11.6464H14.531V15.5044H12.61V16.5044H18.407V21.3164H17.47V17.9414C17.47 17.8088 17.4173 17.6816 17.3236 17.5878C17.2298 17.494 17.1026 17.4414 16.97 17.4414H13.095C12.9624 17.4414 12.8352 17.494 12.7415 17.5878C12.6477 17.6816 12.595 17.8088 12.595 17.9414V21.3164H11.657V14.6004H10.657V21.3164H4.875V17.4734H8.735V16.4734H4.875V9.72536H6.797V8.72536H4.375ZM13.594 18.4414H16.469V21.3164H13.594V18.4414ZM2.438 25.2234H2.905V28.0964H2.436C1.631 28.0964 0.999004 27.4664 0.999004 26.6604C0.999004 25.8554 1.632 25.2234 2.438 25.2234ZM18.414 26.1504L10.18 26.1804C10.1582 26.1809 10.1365 26.1829 10.115 26.1864C10.1033 26.1876 10.0916 26.1893 10.08 26.1914C10.0669 26.1942 10.0539 26.1975 10.041 26.2014C10.0357 26.2026 10.0303 26.2039 10.025 26.2054C10.0193 26.2073 10.0136 26.2093 10.008 26.2114C9.99992 26.2145 9.99192 26.2178 9.984 26.2214C9.97488 26.2254 9.96587 26.2298 9.957 26.2344C9.94923 26.2382 9.94157 26.2422 9.934 26.2464L7.054 27.6934C6.97103 27.7353 6.90139 27.7995 6.8529 27.8788C6.80442 27.9582 6.77901 28.0494 6.77953 28.1424C6.78005 28.2354 6.80648 28.3264 6.85584 28.4051C6.90521 28.4839 6.97557 28.5474 7.059 28.5884L9.973 30.0284C10.079 30.0798 10.1998 30.0922 10.314 30.0634H18.426C18.4648 30.0632 18.5033 30.0585 18.541 30.0494H19.412C20.315 30.0494 21.093 29.3494 21.09 28.4554L21.086 27.7304C21.082 26.8334 20.298 26.1484 19.402 26.1504H18.416C18.4153 26.1504 18.4147 26.1504 18.414 26.1504ZM17.918 27.1504V27.1524L17.92 27.6324L10.686 27.6154L10.684 27.1784L17.918 27.1504ZM18.918 27.1504H19.402C19.798 27.1504 20.085 27.4284 20.086 27.7344L20.09 28.4594C20.091 28.7694 19.817 29.0494 19.412 29.0494H18.924L18.922 28.1604L18.918 27.1504ZM9.686 27.4904L9.688 28.0984L9.689 28.7734L8.4 28.1354L9.686 27.4904ZM10.689 28.6154L17.922 28.6334L17.924 29.0634H10.69L10.688 28.6154H10.689Z" fill="#246BFD"/>
</g>
<defs>
<clipPath id="clip0_1747_2525">
<rect width="32" height="32" fill="white"/>
</clipPath>
</defs>
</svg>
