<svg width="32" height="32" viewBox="0 0 32 32" fill="none" xmlns="http://www.w3.org/2000/svg">
<g id="finance 1">
<path id="Vector" d="M18.807 3.01567C18.6771 3.01753 18.553 3.06989 18.461 3.16167L13.975 7.64671C13.4259 6.83186 12.6851 6.16429 11.8176 5.70274C10.9501 5.2412 9.9826 4.99985 9 4.99974C5.692 4.99974 3 7.69174 3 10.9997C3 12.7697 3.776 14.3597 5 15.4597V25.9997C5 27.0997 5.9 27.9997 7 27.9997H26C27.1 27.9997 28 27.0997 28 25.9997V12.9997C28 11.8997 27.1 10.9997 26 10.9997L23.076 5.48473C23.0329 5.40334 22.9682 5.33537 22.889 5.28844C22.8097 5.2415 22.7191 5.21743 22.627 5.21874C22.5477 5.22013 22.4699 5.24031 22.4 5.2777L21.67 5.66466L19.168 3.16271C19.1207 3.11528 19.0644 3.07779 19.0024 3.05254C18.9404 3.02729 18.8739 3.01475 18.807 3.01567ZM18.814 4.22264L20.746 6.15465L14.76 9.3297C14.6835 9.06682 14.5889 8.80952 14.477 8.55968L18.814 4.22264ZM9 5.99974C11.767 5.99974 14 8.23274 14 10.9997C14 13.7677 11.767 15.9997 9 15.9997C6.233 15.9997 4 13.7677 4 10.9997C4 8.23274 6.233 5.99974 9 5.99974ZM22.428 6.39464L24.869 10.9997H15C15 10.7817 14.986 10.5656 14.963 10.3536L22.428 6.39464ZM8.717 6.99974V7.92564C8.48198 7.95257 8.25219 8.0139 8.035 8.10765C7.832 8.19765 7.658 8.31262 7.514 8.45262C7.374 8.59262 7.264 8.75872 7.186 8.94872C7.112 9.13972 7.074 9.3497 7.074 9.5797C7.074 9.8297 7.118 10.0517 7.204 10.2417C7.292 10.4327 7.417 10.6017 7.58 10.7477C7.746 10.8937 7.947 11.0217 8.18 11.1307C8.416 11.2377 8.683 11.3307 8.979 11.4117C9.2 11.4847 9.388 11.5617 9.543 11.6407C9.702 11.7197 9.83 11.8037 9.926 11.8967C10.026 11.9897 10.098 12.0887 10.143 12.1957C10.188 12.3068 10.2105 12.4257 10.209 12.5456C10.209 12.6956 10.182 12.8357 10.127 12.9587C10.0709 13.0796 9.98733 13.1857 9.883 13.2687C9.7673 13.3591 9.63521 13.4263 9.494 13.4667C9.18617 13.5531 8.8611 13.5576 8.551 13.4797C8.41083 13.444 8.28014 13.3781 8.168 13.2867C8.04724 13.1855 7.9523 13.0569 7.891 12.9117C7.81463 12.7233 7.77853 12.521 7.785 12.3177H6.81C6.81 12.6347 6.86 12.9067 6.96 13.1337C7.06 13.3587 7.192 13.5457 7.358 13.6937C7.528 13.8437 7.724 13.9557 7.942 14.0337C8.161 14.1137 8.385 14.1657 8.618 14.1907V14.9986H9.39V14.1907C9.667 14.1627 9.916 14.1067 10.138 14.0227C10.3462 13.9465 10.5382 13.8318 10.704 13.6847C10.859 13.5447 10.98 13.3797 11.065 13.1887C11.151 12.9947 11.192 12.7777 11.192 12.5367C11.1963 12.3129 11.1544 12.0906 11.069 11.8837C10.9869 11.6936 10.8644 11.5237 10.71 11.3857C10.5341 11.2316 10.3359 11.1052 10.122 11.0107C9.86191 10.8912 9.59273 10.7925 9.317 10.7157C9.11201 10.6527 8.91155 10.5759 8.717 10.4857C8.57709 10.4168 8.44668 10.33 8.329 10.2276C8.23619 10.1474 8.1627 10.0473 8.114 9.93468C8.07164 9.81701 8.05065 9.69278 8.052 9.56773C8.052 9.42173 8.074 9.28771 8.114 9.16771C8.15593 9.04829 8.22484 8.94012 8.31538 8.85167C8.40592 8.76322 8.51563 8.69684 8.636 8.6577C8.766 8.6097 8.917 8.58763 9.095 8.58763C9.265 8.58763 9.417 8.6177 9.55 8.6837C9.68083 8.74647 9.7952 8.83895 9.884 8.95372C9.973 9.06772 10.039 9.2037 10.083 9.3607C10.131 9.5187 10.155 9.69272 10.155 9.88072H11.126C11.126 9.31072 10.983 8.8607 10.698 8.5327C10.418 8.2027 10.018 7.99967 9.501 7.92967V6.99974H8.718H8.717ZM14.908 11.9997H26C26.563 11.9997 27 12.4377 27 12.9997V16.9997H21.5C20.8374 17.0013 20.2025 17.2651 19.734 17.7336C19.2655 18.2021 19.0016 18.8372 19 19.4997C19 20.8767 20.124 21.9997 21.5 21.9997H27V25.9997C27 26.5627 26.563 26.9997 26 26.9997H7C6.437 26.9997 6 26.5627 6 25.9997V16.1877C6.91051 16.7191 7.94576 16.9994 9 16.9997C11.966 16.9997 14.43 14.8317 14.908 11.9997ZM15 12.9997V13.9997H16V12.9997H15ZM17 12.9997V13.9997H18V12.9997H17ZM19 12.9997V13.9997H20V12.9997H19ZM21 12.9997V13.9997H22V12.9997H21ZM23 12.9997V13.9997H24V12.9997H23ZM25 12.9997V13.9997H26V12.9997H25ZM25 14.9997V15.9997H26V14.9997H25ZM7 16.9997V17.9997H8V16.9997H7ZM21.5 17.9997H27V20.9997H21.5C20.66 20.9997 20 20.3397 20 19.4997C20 18.6597 20.66 17.9997 21.5 17.9997ZM7 18.9997V19.9997H8V18.9997H7ZM21 18.9997V19.9997H22V18.9997H21ZM7 20.9997V21.9997H8V20.9997H7ZM7 22.9997V23.9997H8V22.9997H7ZM25 22.9997V23.9997H26V22.9997H25ZM7 24.9997V25.9997H8V24.9997H7ZM9 24.9997V25.9997H10V24.9997H9ZM11 24.9997V25.9997H12V24.9997H11ZM13 24.9997V25.9997H14V24.9997H13ZM15 24.9997V25.9997H16V24.9997H15ZM17 24.9997V25.9997H18V24.9997H17ZM19 24.9997V25.9997H20V24.9997H19ZM21 24.9997V25.9997H22V24.9997H21ZM23 24.9997V25.9997H24V24.9997H23ZM25 24.9997V25.9997H26V24.9997H25Z" fill="#246BFD"/>
</g>
</svg>
