<svg width="32" height="32" viewBox="0 0 32 32" fill="none" xmlns="http://www.w3.org/2000/svg">
<g id="bridge 1">
<path id="Vector" d="M30.4749 14.2726H28.8199L26.1619 3.27508C26.1356 3.16613 26.0734 3.06919 25.9853 2.99983C25.8973 2.93046 25.7885 2.89269 25.6764 2.89258H6.2924C6.18023 2.89258 6.07131 2.9303 5.98317 2.99967C5.89502 3.06905 5.83276 3.16605 5.8064 3.27508L3.1489 14.2751H2.0249C1.89229 14.2751 1.76512 14.3278 1.67135 14.4215C1.57758 14.5153 1.5249 14.6425 1.5249 14.7751V18.1136C1.5249 18.2462 1.57758 18.3734 1.67135 18.4671C1.76512 18.5609 1.89229 18.6136 2.0249 18.6136H3.5749V20.5411C3.5749 20.6737 3.62758 20.8009 3.72135 20.8946C3.81512 20.9884 3.94229 21.0411 4.0749 21.0411H5.2439V29.0411C5.2439 29.1737 5.29658 29.3009 5.39035 29.3946C5.48412 29.4884 5.61129 29.5411 5.7439 29.5411H9.0819C9.21451 29.5411 9.34169 29.4884 9.43546 29.3946C9.52922 29.3009 9.5819 29.1737 9.5819 29.0411V26.6181C9.5819 23.9601 12.5739 21.7976 16.2514 21.7976C19.9289 21.7976 22.9209 23.9601 22.9209 26.6476V29.0376C22.9209 29.1702 22.9736 29.2974 23.0673 29.3911C23.1611 29.4849 23.2883 29.5376 23.4209 29.5376H26.7589C26.8915 29.5376 27.0187 29.4849 27.1125 29.3911C27.2062 29.2974 27.2589 29.1702 27.2589 29.0376V21.0376H28.4284C28.561 21.0376 28.6882 20.9849 28.782 20.8911C28.8757 20.7974 28.9284 20.6702 28.9284 20.5376V18.6111H30.4784C30.611 18.6111 30.7382 18.5584 30.832 18.4646C30.9257 18.3709 30.9784 18.2437 30.9784 18.1111V14.7726C30.9784 14.7066 30.9654 14.6413 30.94 14.5804C30.9147 14.5195 30.8775 14.4643 30.8307 14.4178C30.7839 14.3713 30.7284 14.3345 30.6673 14.3096C30.6063 14.2847 30.5409 14.2721 30.4749 14.2726ZM27.7914 14.2726H26.6344L24.1264 3.89258H25.2824L27.7914 14.2726ZM15.0554 14.2726H6.3629L8.6934 4.62808L15.0554 14.2726ZM9.4054 3.89258H22.5619L15.9844 13.8646L9.4054 3.89258ZM23.2754 4.62808L25.6059 14.2726H16.9134L23.2754 4.62808ZM6.6859 3.89258H7.8424L5.3339 14.2726H4.1779L6.6859 3.89258ZM4.5734 18.6111H10.2499V20.0386H4.5734V18.6111ZM8.5804 28.5361H6.2424V21.0361H8.5804V28.5361ZM16.2499 20.8001C13.3924 20.8001 10.8999 21.9941 9.5804 23.7571V21.0386H10.7499C10.8825 21.0386 11.0097 20.9859 11.1035 20.8921C11.1972 20.7984 11.2499 20.6712 11.2499 20.5386V18.6111H21.2499V20.5386C21.2499 20.6712 21.3026 20.7984 21.3963 20.8921C21.4901 20.9859 21.6173 21.0386 21.7499 21.0386H22.9189V23.7546C21.5999 21.9916 19.1074 20.8001 16.2499 20.8001ZM26.2574 28.5361H23.9194V21.0361H26.2574V28.5361ZM27.9269 20.0361H22.2499V18.6111H27.9269V20.0361ZM29.9769 17.6086H2.5249V15.2726H29.9749L29.9769 17.6086Z" fill="#246BFD"/>
</g>
</svg>
