<svg width="28" height="28" viewBox="0 0 28 28" fill="none" xmlns="http://www.w3.org/2000/svg">
<g id="More Circle">
<path id="Stroke 1" fill-rule="evenodd" clip-rule="evenodd" d="M14.0003 1.66699C20.811 1.66699 26.3337 7.18966 26.3337 14.0003C26.3337 20.811 20.811 26.3337 14.0003 26.3337C7.18832 26.3337 1.66699 20.811 1.66699 14.0003C1.66699 7.18966 7.18832 1.66699 14.0003 1.66699Z" stroke="#246BFD" stroke-width="1.5" stroke-linecap="round" stroke-linejoin="round"/>
<path id="Fill 3" d="M8.028 15.5967C7.14666 15.5967 6.43066 14.8807 6.43066 14.0007C6.43066 13.1207 7.14666 12.4033 8.028 12.4033C8.90933 12.4033 9.62533 13.1207 9.62533 14.0007C9.62533 14.8807 8.90933 15.5967 8.028 15.5967Z" fill="#246BFD"/>
<path id="Fill 5" d="M14.0007 15.5967C13.1193 15.5967 12.4033 14.8807 12.4033 14.0007C12.4033 13.1207 13.1193 12.4033 14.0007 12.4033C14.882 12.4033 15.598 13.1207 15.598 14.0007C15.598 14.8807 14.882 15.5967 14.0007 15.5967Z" fill="#246BFD"/>
<path id="Fill 7" d="M19.9723 15.5967C19.091 15.5967 18.375 14.8807 18.375 14.0007C18.375 13.1207 19.091 12.4033 19.9723 12.4033C20.8537 12.4033 21.5697 13.1207 21.5697 14.0007C21.5697 14.8807 20.8537 15.5967 19.9723 15.5967Z" fill="#246BFD"/>
</g>
</svg>
