<svg width="32" height="32" viewBox="0 0 32 32" fill="none" xmlns="http://www.w3.org/2000/svg">
<g id="police 1">
<path id="Vector" d="M29.4255 25.0134C29.3786 23.7687 28.9429 22.5699 28.1794 21.5856C28.0136 21.3658 27.8322 21.1584 27.6364 20.965C27.7046 20.8018 27.7074 20.6186 27.6442 20.4534C27.581 20.2882 27.4567 20.1537 27.297 20.0777L23.8158 18.531C23.6934 18.4775 23.5578 18.4618 23.4265 18.486C23.2952 18.5102 23.1741 18.5732 23.0788 18.6668L21.0521 17.6971C20.9035 17.5665 20.7409 17.4526 20.5673 17.3577L20.0824 17.091V16.1989C20.3736 15.7946 20.6085 15.3525 20.7806 14.885C20.9869 14.2885 21.133 13.6729 21.217 13.0474C21.3219 13.0077 21.42 12.9521 21.5079 12.8825C22.0201 12.408 22.3322 11.7561 22.3806 11.0595C22.4528 10.6975 22.4469 10.3243 22.3633 9.96473C22.2797 9.6052 22.1203 9.26765 21.8958 8.97465L21.9782 8.69829C22.1227 8.48815 22.1911 8.235 22.1721 7.98071C21.9491 4.78071 20.9406 2.52616 19.394 1.63404C18.7727 1.30882 18.1004 1.09235 17.4061 0.994043C17.2282 0.804676 17.0082 0.659898 16.7639 0.571447C16.5196 0.482997 16.2579 0.453364 16 0.484952C15.7432 0.453166 15.4824 0.483224 15.2395 0.572622C14.9966 0.662019 14.7786 0.808168 14.6037 0.998891C13.9057 1.09181 13.2295 1.3068 12.6061 1.63404C11.0206 2.53101 10.0121 4.79526 9.76487 8.0098C9.74667 8.2692 9.82049 8.52672 9.97336 8.73707L10.0558 9.01344C9.84551 9.30577 9.69817 9.63853 9.62306 9.99071C9.54795 10.3429 9.54671 10.7068 9.61942 11.0595C9.66843 11.7549 9.97843 12.4061 10.4873 12.8825C10.5776 12.9512 10.6772 13.0067 10.7831 13.0474C10.8646 13.6733 11.0109 14.2892 11.2194 14.885C11.3798 15.3282 11.6 15.7474 11.874 16.131V17.1007L11.3649 17.411C11.2135 17.5027 11.0721 17.6099 10.9431 17.731C10.906 17.7264 10.8686 17.7264 10.8315 17.731L8.7273 18.5068C8.64 18.466 8.54484 18.4449 8.44851 18.4449C8.35218 18.4449 8.25702 18.466 8.16972 18.5068L4.63518 20.0728C4.46926 20.1526 4.34127 20.2944 4.27871 20.4675C4.21616 20.6407 4.22403 20.8315 4.30063 20.9989L4.33942 21.0716C4.16625 21.2522 4.00433 21.4433 3.85457 21.6437C3.06354 22.6695 2.61416 23.9176 2.56972 25.2122L2.34669 31.0304C2.34375 31.0952 2.35381 31.1598 2.3763 31.2206C2.39878 31.2814 2.43323 31.3371 2.4776 31.3843C2.52323 31.4322 2.57817 31.4702 2.63903 31.4961C2.6999 31.5219 2.76541 31.5351 2.83154 31.5346H29.1734C29.2387 31.5344 29.3033 31.521 29.3632 31.4951C29.4232 31.4693 29.4774 31.4316 29.5224 31.3843C29.5668 31.3371 29.6013 31.2814 29.6238 31.2206C29.6462 31.1598 29.6563 31.0952 29.6534 31.0304L29.4255 25.0134ZM26.6134 20.8486L26.3418 21.4595L23.3988 20.1504L23.6703 19.5395L26.6134 20.8486ZM15.9467 19.1516C15.3281 19.1416 14.7229 18.9699 14.1913 18.6534C13.6597 18.337 13.2201 17.8869 12.9164 17.348C13.0958 17.5225 13.2752 17.6825 13.4449 17.8328C14.1649 18.4225 15.0669 18.7447 15.9976 18.7447C16.9283 18.7447 17.8303 18.4225 18.5503 17.8328C18.7006 17.7165 18.8558 17.5759 19.0352 17.4304C18.7123 17.9576 18.2588 18.3926 17.7186 18.6933C17.1784 18.994 16.5698 19.1502 15.9515 19.1468L15.9467 19.1516ZM15.9467 20.1213C16.7132 20.1164 17.4658 19.9161 18.1334 19.5395L16 24.4268L13.8812 19.5783C14.5151 19.929 15.2272 20.1141 15.9515 20.1165L15.9467 20.1213ZM10.9043 8.48495C14.2299 7.60702 17.7265 7.60702 21.0521 8.48495L20.9067 8.9698L20.7128 9.69707C20.7031 9.7247 20.6845 9.7483 20.6599 9.76412C20.6353 9.77994 20.6061 9.78706 20.577 9.78435C17.5629 9.01348 14.4032 9.01348 11.3891 9.78435C11.3595 9.78654 11.3299 9.77927 11.3046 9.76359C11.2794 9.7479 11.2597 9.72462 11.2485 9.69707L10.9043 8.48495ZM21.1831 7.51525C20.7467 7.40374 20.3055 7.30192 19.8594 7.2195C19.6752 4.94071 19.2194 3.23404 18.5503 2.28859C18.6667 2.34192 18.7831 2.39041 18.8849 2.44859C20.0776 3.15162 20.9018 4.98435 21.1879 7.54435L21.1831 7.51525ZM17.1297 1.9395H17.2655C17.3926 2.01744 17.5112 2.10844 17.6194 2.21101C18.2934 2.8801 18.7831 4.63526 18.977 7.0595C16.9913 6.77346 14.9748 6.77346 12.9891 7.0595C13.1831 4.63526 13.6679 2.86071 14.3467 2.21101C14.453 2.10621 14.5719 2.01501 14.7006 1.9395H14.8364C15.1904 2.13925 15.5942 2.23347 16 2.21101C16.3944 2.22651 16.7854 2.13254 17.1297 1.9395ZM13.0909 2.48253C13.1974 2.42246 13.3075 2.36903 13.4206 2.32253C12.737 3.26313 12.2812 4.9698 12.1212 7.27283C11.68 7.35525 11.2388 7.45707 10.8025 7.56859C11.0594 4.98435 11.8837 3.15162 13.0909 2.48253ZM11.4812 12.2231C11.3777 12.1525 11.2509 12.1247 11.1273 12.1456C11.0109 12.1165 10.6764 11.7092 10.5746 10.9334C10.5558 10.7432 10.5558 10.5516 10.5746 10.3613C10.6776 10.4756 10.8031 10.5673 10.9433 10.6308C11.0835 10.6942 11.2353 10.7279 11.3891 10.7298C11.4759 10.73 11.5623 10.7186 11.6461 10.6959C14.5094 9.96607 17.51 9.96607 20.3734 10.6959C20.5748 10.7457 20.7862 10.737 20.9829 10.6709C21.1795 10.6047 21.3533 10.4839 21.4837 10.3225C21.5049 10.5256 21.5049 10.7304 21.4837 10.9334C21.4798 11.1622 21.4292 11.3877 21.335 11.5961C21.2408 11.8046 21.1049 11.9915 20.9358 12.1456C20.815 12.1232 20.6903 12.1474 20.5867 12.2134C20.5255 12.252 20.4736 12.3039 20.435 12.3651C20.3964 12.4264 20.3721 12.4955 20.3637 12.5674C20.2745 13.2424 20.1119 13.9058 19.8788 14.5456C19.459 15.5342 18.791 16.3977 17.9394 17.0522C17.3913 17.4979 16.7065 17.7412 16 17.7412C15.2936 17.7412 14.6087 17.4979 14.0606 17.0522C13.2091 16.3977 12.541 15.5342 12.1212 14.5456C11.9027 13.8997 11.7579 13.2312 11.6897 12.5528C11.6797 12.4864 11.656 12.4228 11.6201 12.3661C11.5842 12.3093 11.5369 12.2607 11.4812 12.2231ZM11.8643 18.2159L12.1503 18.0413L15.5443 25.8328C15.5821 25.9196 15.6445 25.9933 15.7238 26.045C15.803 26.0967 15.8957 26.1241 15.9903 26.1237C16.0841 26.1231 16.1757 26.0953 16.2541 26.0437C16.3324 25.992 16.394 25.9188 16.4315 25.8328L19.8255 18.0462L20.0582 18.1819C20.2433 18.2853 20.4062 18.4242 20.5377 18.5906C20.6691 18.757 20.7665 18.9476 20.8243 19.1516L21.2897 20.8486L20.96 20.7807C20.7427 20.7336 20.5156 20.7671 20.3211 20.875C20.1266 20.983 19.978 21.158 19.9031 21.3674C19.8607 21.4769 19.8425 21.5944 19.8497 21.7116V21.765C19.8937 22.1327 20.0003 22.4902 20.1649 22.8219C20.1647 22.8536 20.1582 22.885 20.1457 22.9141C20.1332 22.9433 20.115 22.9696 20.0921 22.9916L16 27.011L11.9031 23.0159C11.8631 22.9767 11.8332 22.9284 11.8158 22.8753C11.9934 22.5181 12.1066 22.1324 12.1503 21.7359C12.1574 21.5978 12.1327 21.46 12.078 21.3331C12.0234 21.2062 11.9403 21.0935 11.8352 21.0037C11.7256 20.9137 11.5976 20.8488 11.4602 20.8136C11.3228 20.7785 11.1794 20.7738 11.04 20.8001L10.7491 20.8583C10.7442 20.8618 10.7382 20.8637 10.7321 20.8637C10.7261 20.8637 10.7201 20.8618 10.7152 20.8583L11.1515 19.1856C11.2539 18.7819 11.5096 18.434 11.8643 18.2159ZM8.31518 19.5007L8.58669 20.1116L5.56609 21.4546L5.29457 20.8486L8.31518 19.5007ZM24.4364 30.5456V27.8886C24.4364 27.76 24.3853 27.6367 24.2944 27.5457C24.2035 27.4548 24.0801 27.4037 23.9515 27.4037C23.823 27.4037 23.6996 27.4548 23.6087 27.5457C23.5178 27.6367 23.4667 27.76 23.4667 27.8886V30.5456H8.53336V27.8886C8.53336 27.76 8.48228 27.6367 8.39135 27.5457C8.30042 27.4548 8.1771 27.4037 8.04851 27.4037C7.91992 27.4037 7.7966 27.4548 7.70567 27.5457C7.61474 27.6367 7.56366 27.76 7.56366 27.8886V30.5456H3.33093L3.53457 25.2122C3.57362 24.1244 3.94975 23.0757 4.61093 22.211L4.76609 22.0219L4.79033 22.0704C4.84402 22.196 4.93314 22.3033 5.0468 22.379C5.16046 22.4548 5.29373 22.4958 5.43033 22.4971C5.52229 22.4963 5.61309 22.4765 5.697 22.4389L9.24609 20.8583C9.3268 20.8225 9.39962 20.7711 9.46037 20.707C9.52112 20.6429 9.56858 20.5675 9.60003 20.485C9.67249 20.3095 9.67249 20.1125 9.60003 19.9371L9.32366 19.3165L10.1818 19.0062L9.75033 20.6789V20.7613C9.73789 20.9037 9.75708 21.0471 9.80653 21.1812C9.85599 21.3153 9.93448 21.4368 10.0364 21.5371C10.1514 21.6465 10.2896 21.7286 10.4407 21.7772C10.5918 21.8259 10.7519 21.84 10.9091 21.8183L11.1855 21.7456C11.1417 21.9935 11.0617 22.2337 10.9479 22.4583L10.9188 22.5359C10.8565 22.7413 10.8529 22.9602 10.9086 23.1676C10.9643 23.375 11.077 23.5626 11.234 23.7092L15.6703 28.034C15.7606 28.1236 15.8825 28.1741 16.0097 28.1746C16.1369 28.1741 16.2588 28.1236 16.3491 28.034L20.7855 23.7092C20.9407 23.5645 21.0524 23.3794 21.1081 23.1747C21.1638 22.97 21.1612 22.7537 21.1006 22.5504C21.0937 22.5183 21.0822 22.4873 21.0667 22.4583C20.961 22.2372 20.8875 22.0021 20.8485 21.7601L21.1637 21.8231C21.3151 21.8396 21.4684 21.8225 21.6125 21.7731C21.7567 21.7236 21.8881 21.6431 21.9976 21.5371C22.0993 21.4359 22.1773 21.3134 22.2259 21.1784C22.2745 21.0434 22.2926 20.8993 22.2788 20.7565C22.2788 20.7565 22.2788 20.7177 22.2788 20.6934L21.8861 19.171L22.6425 19.5443L22.434 20.005C22.3696 20.1584 22.3577 20.3288 22.4 20.4898C22.4273 20.582 22.4745 20.667 22.5381 20.7391C22.6018 20.8111 22.6804 20.8683 22.7685 20.9068L26.2449 22.4534C26.3284 22.4921 26.4195 22.5119 26.5115 22.5116C26.6107 22.5105 26.7085 22.4873 26.7976 22.4437C26.9543 22.3714 27.0787 22.2436 27.1467 22.085L27.2243 21.9201C27.297 22.0025 27.3746 22.085 27.4424 22.1722C28.0812 22.9985 28.4457 24.0037 28.4849 25.0474L28.6691 30.5456H24.4364Z" fill="#246BFD"/>
<path id="Vector_2" d="M22.5018 25.8083C22.4866 25.7123 22.4429 25.623 22.3763 25.5521C22.3098 25.4812 22.2234 25.4319 22.1285 25.4108L21.0182 25.1635C20.9495 25.1484 20.8784 25.1484 20.8097 25.1635L19.6994 25.4108C19.6045 25.4319 19.5181 25.4812 19.4515 25.5521C19.3849 25.623 19.3412 25.7123 19.326 25.8083C19.2358 25.8443 19.1585 25.9065 19.104 25.9869C19.0496 26.0673 19.0205 26.1622 19.0206 26.2593V27.1126C19.0262 27.6444 19.2089 28.1592 19.54 28.5755C19.8711 28.9917 20.3315 29.2857 20.8485 29.4108H20.9988C21.5085 29.2783 21.9602 28.9812 22.2838 28.5656C22.6073 28.15 22.7845 27.6392 22.7879 27.1126V26.2593C22.7896 26.1643 22.7634 26.071 22.7125 25.9909C22.6616 25.9107 22.5884 25.8472 22.5018 25.8083ZM21.8182 27.1126C21.8095 27.397 21.7176 27.6726 21.5538 27.9053C21.3901 28.1379 21.1617 28.3175 20.897 28.4217C20.6313 28.3182 20.4019 28.139 20.2372 27.9063C20.0726 27.6735 19.98 27.3975 19.9709 27.1126V26.5405C20.0538 26.4729 20.1215 26.3887 20.1697 26.2932L20.8921 26.1332L21.6194 26.2932C21.6675 26.3887 21.7353 26.4729 21.8182 26.5405V27.1126ZM14.5745 3.35986C14.4946 3.40015 14.4273 3.4618 14.3803 3.53796C14.3332 3.61413 14.3081 3.70184 14.3079 3.79138V4.5138C14.312 4.98014 14.4716 5.43177 14.7614 5.79713C15.0512 6.16249 15.4547 6.42068 15.9079 6.53077H16.0582C16.5113 6.42068 16.9148 6.16249 17.2046 5.79713C17.4945 5.43177 17.6541 4.98014 17.6582 4.5138V3.79138C17.6579 3.70184 17.6328 3.61413 17.5858 3.53796C17.5387 3.4618 17.4715 3.40015 17.3915 3.35986C17.3699 3.27152 17.3239 3.19103 17.2587 3.12758C17.1936 3.06414 17.1119 3.0203 17.023 3.00107L16.0873 2.79259C16.0186 2.77747 15.9474 2.77747 15.8788 2.79259L14.943 3.00107C14.8541 3.0203 14.7724 3.06414 14.7073 3.12758C14.6421 3.19103 14.5961 3.27152 14.5745 3.35986ZM15.2776 4.06774C15.3329 4.01152 15.3803 3.94788 15.4182 3.87865L16 3.76229L16.5479 3.87865C16.5865 3.94447 16.6338 4.0048 16.6885 4.05804V4.5041C16.6886 4.72563 16.6234 4.94227 16.5009 5.12685C16.3784 5.31143 16.2042 5.45574 16 5.54168C15.7937 5.45937 15.6164 5.31784 15.4904 5.13492C15.3644 4.952 15.2954 4.73588 15.2921 4.5138L15.2776 4.06774Z" fill="#246BFD"/>
</g>
</svg>
