<svg width="31" height="27" viewBox="0 0 31 27" fill="none" xmlns="http://www.w3.org/2000/svg">
<path fill-rule="evenodd" clip-rule="evenodd" d="M27.9238 0.0934641C27.5782 0.499629 27.3992 1.09157 27.107 1.5785C25.3545 4.5082 23.2175 6.35209 20.4393 8.1556C20.0036 8.43715 19.4691 8.67254 19.1202 9.0037C19.8581 9.94296 20.1915 10.6411 20.1503 12.3499C20.1234 12.9536 19.9678 13.5436 19.6947 14.0773C19.528 14.4073 19.0035 15.1308 18.7179 15.3708C18.3634 15.6685 17.9011 16.1347 17.3221 15.9858C16.1953 15.695 15.4329 14.4419 16.4953 13.4104C16.9987 12.9246 17.3377 12.9269 18.2534 12.9269C17.9544 11.5965 16.2164 10.9734 14.6817 9.59564C14.3905 9.33371 14.7928 9.51025 14.3628 9.34987C13.9105 10.0526 13.6804 10.7091 14.6706 11.3391L15.1018 11.5838L15.1707 11.6276C15.3729 11.7615 15.2485 11.6692 15.364 11.773C14.6195 11.953 13.8238 12.6165 13.4237 13.2211C12.6214 14.4327 13.0903 15.3777 13.1403 16.0435C10.3421 14.5042 9.98096 10.9838 11.739 9.00024L9.06082 7.23481C7.01495 5.68977 3.76221 2.62853 2.98543 0C2.36311 0.564246 1.58743 2.00313 1.57298 3.23086C1.55187 4.88321 2.26198 5.60784 3.05322 6.43633C4.27341 7.71136 7.77062 9.57718 9.13861 9.69257C9.04526 9.89565 9.01081 10.0653 8.91635 10.2695C7.42945 10.1403 4.30008 8.43253 3.02654 7.5002C2.65537 7.22789 2.392 6.97057 2.04195 6.67633C1.00734 5.80977 1.38518 6.04055 0.725073 5.27322L0.246109 4.84628C-0.206184 6.86672 -0.127282 8.12329 1.27183 9.55295C2.76428 11.0772 6.64822 12.2969 8.58297 12.4619C8.38738 12.8473 8.58297 12.71 8.28625 12.7503C7.19608 12.8934 3.2688 11.7395 1.86747 10.7795C1.55743 10.5661 1.27738 10.3918 1.00845 10.1714C0.703959 9.92334 0.447252 9.67987 0.134981 9.46179C-0.176179 13.355 2.44201 14.1927 5.86588 14.7062L8.36405 14.8481C8.74188 14.8585 8.75966 14.6542 8.80856 15.2323C7.10274 15.2323 5.72363 15.2566 4.26452 14.9877C1.91415 14.5573 1.44407 13.8269 0.691735 13.6157C0.691735 15.6847 2.16974 16.8547 3.85112 17.2597C5.14799 17.5724 7.06273 17.4535 8.37071 17.3197C8.95525 17.2608 9.39421 17.1039 9.80538 17.3093C9.56423 17.6555 9.19862 17.6428 8.39294 17.8043C6.19815 18.244 4.73348 17.8862 3.02543 17.8862C4.52122 20.8206 7.67171 20.2032 10.1377 19.1555C10.4933 19.0055 10.8044 18.7667 11.1378 18.9247C11.0267 19.3586 11.0878 19.189 10.7011 19.3944C9.18306 20.2009 7.71617 20.734 5.91588 20.8852C6.64155 22.0114 9.00415 22.5895 11.0534 21.2567C11.5401 20.9406 11.919 20.5009 12.3624 20.1928C12.6269 20.3763 12.4736 20.3325 12.807 20.4236C12.108 21.506 10.3399 22.616 8.91747 22.9622C9.1675 23.3164 9.78649 23.4745 10.3121 23.5922C12.757 24.1391 13.816 21.7656 14.2527 21.4621C14.6317 22.3114 12.4147 24.1564 11.8079 24.5776C12.3269 25.3853 14.1127 26.0407 15.2851 26.1688C16.8076 26.3338 18.7757 24.8799 19.0324 24.8084C18.9046 24.311 18.5879 24.2741 18.2267 23.9141C17.6422 23.3372 16.9221 22.7245 16.6064 21.8729C16.2608 20.9383 16.9787 21.8556 17.1254 22.0552C18.8512 24.4033 21.3927 23.7122 21.9228 22.961C20.8416 22.7002 18.3934 21.3917 18.1445 20.4225L18.3889 20.2148C19.0746 20.3752 19.2691 21.2533 21.2661 21.9133C22.164 22.211 23.3375 22.0102 24.1265 21.5556C24.4166 21.3883 24.5955 21.2094 24.9255 21.1148V20.884C22.8352 20.7029 21.1838 19.9678 19.7025 19.1532C19.9925 18.7032 20.0259 18.8301 20.5582 19.0655C20.9316 19.2305 21.2538 19.3713 21.605 19.4867C23.083 19.9759 24.8989 20.3682 26.3924 19.5201C26.9047 19.2294 27.6604 18.4932 27.8171 17.8828C25.7112 17.8828 25.1956 18.2555 22.464 17.7859C22.0051 17.7074 21.2938 17.6705 21.0371 17.3058C21.4817 17.0831 22.9263 17.4028 24.0432 17.4212C25.8712 17.4478 27.7182 17.5862 29.1795 16.0689C29.9985 15.2196 29.9708 14.915 30.263 13.6146L28.5961 14.4223C26.8036 15.2427 24.1076 15.23 22.0395 15.23C22.174 14.6312 21.8295 14.8839 23.1508 14.7754C23.7376 14.7258 24.2888 14.8089 24.88 14.7212C26.079 14.5423 26.9392 14.4465 27.9127 14.0611C28.7483 13.73 29.5562 13.243 30.0886 12.5126C30.7198 11.6484 30.8164 10.9064 30.8164 9.45949C30.4831 9.5518 29.7107 10.3191 29.1284 10.708C27.3092 11.9219 24.6433 12.6096 22.3685 12.8057V12.4596C25.1656 11.7834 29.0506 11.2018 30.4864 8.30561C30.942 7.38251 31.072 5.87439 30.5975 4.84398C29.9452 5.29745 29.6363 6.42825 26.8814 8.1406C25.9924 8.69216 23.0941 10.2407 21.9273 10.2684C21.8693 10.081 21.832 9.88748 21.8161 9.69141C24.261 9.10063 29.3451 6.70518 29.3451 3.34509C29.3451 2.19121 28.6039 0.645017 27.9293 0.0923102L27.9238 0.0934641ZM14.3694 3.80779C14.5795 4.10665 14.6006 4.07434 14.6817 4.58666C15.3296 4.60397 15.0451 4.61435 15.4752 4.85667C15.7963 4.56705 15.6541 4.61782 16.2053 4.56589C16.2497 4.11473 16.3086 4.12973 16.4998 3.80779C16.2697 3.50894 16.2775 3.58625 16.1842 3.07047C15.5174 3.02085 15.7885 2.98854 15.3218 2.74623C14.9517 3.27816 14.9884 2.88585 14.735 3.1547C14.525 3.3774 14.7617 3.40048 14.3694 3.80779Z" fill="#246BFD"/>
</svg>
